<svg xmlns="http://www.w3.org/2000/svg" width="219" height="220" viewBox="0 0 219 220">
    <defs>
        <radialGradient id="radial-gradient" cx="0.5" cy="0.5" r="0.5" gradientUnits="objectBoundingBox">
            <stop offset="0" stop-color="#edfaff" />
            <stop offset="1" stop-color="#fff" />
        </radialGradient>
    </defs>
    <g id="Group_74294" data-name="Group 74294" transform="translate(-71 -339)">
        <ellipse id="Ellipse_118" data-name="Ellipse 118" cx="37.5" cy="38" rx="37.5" ry="38" transform="translate(143 411)" fill="#999" />
        <circle id="Ellipse_117" data-name="Ellipse 117" cx="65.5" cy="65.5" r="65.5" transform="translate(115 356)" fill="url(#radial-gradient)" />
        <g id="fingerprint" transform="translate(129.227 388.811)">
            <g id="Group_147769" data-name="Group 147769" transform="translate(21.277)">
                <g id="Group_147768" data-name="Group 147768">
                    <path id="Path_198302" data-name="Path 198302"
                        d="M98.77,185.281a25.955,25.955,0,0,1-3.031-12.632c0-7.93,6.865-14.385,15.287-14.385,8.438,0,15.287,6.456,15.287,14.385a1.638,1.638,0,1,0,3.277,0c0-9.749-8.323-17.662-18.563-17.662s-18.564,7.93-18.564,17.662a29.16,29.16,0,0,0,3.457,14.238,34.336,34.336,0,0,0,6.587,8.635,1.626,1.626,0,0,0,1.163.491,1.469,1.469,0,0,0,1.131-.491,1.617,1.617,0,0,0,.016-2.31A31.058,31.058,0,0,1,98.77,185.281Z"
                        transform="translate(-81.528 -131.18)" fill="#1876d3" />
                    <path id="Path_198303" data-name="Path 198303"
                        d="M81.33,7.9a38.3,38.3,0,0,1,36.5.016,1.756,1.756,0,0,0,.754.18h0a1.639,1.639,0,0,0,.754-3.1,41.634,41.634,0,0,0-39.585.016A1.642,1.642,0,1,0,81.33,7.9Z"
                        transform="translate(-70.052)" fill="#1876d3" />
                    <path id="Path_198304" data-name="Path 198304"
                        d="M64.6,103.04A27.216,27.216,0,0,0,39.988,118.1a24.261,24.261,0,0,0-2.245,10.6,36.486,36.486,0,0,0,2.392,12.96,1.643,1.643,0,1,0,3.08-1.147A32.69,32.69,0,0,1,41.036,128.7a21.049,21.049,0,0,1,1.917-9.192A23.9,23.9,0,0,1,64.613,106.3c13.091,0,23.741,10.044,23.741,22.4a6.831,6.831,0,0,1-13.632,0,10.1,10.1,0,0,0-20.186,0A23.99,23.99,0,0,0,61.631,145.8,25.026,25.026,0,0,0,73.8,152.685a1.222,1.222,0,0,0,.426.066,1.634,1.634,0,0,0,.426-3.211,22.106,22.106,0,0,1-10.732-6.046A20.731,20.731,0,0,1,57.8,128.714a6.831,6.831,0,0,1,13.632,0,10.1,10.1,0,0,0,20.186,0C91.615,114.558,79.49,103.04,64.6,103.04Z"
                        transform="translate(-35.214 -87.213)" fill="#1876d3" />
                    <path id="Path_198305" data-name="Path 198305"
                        d="M79.972,66.635a34.28,34.28,0,0,0-12.288-10.65,37.809,37.809,0,0,0-33.8.033,34.128,34.128,0,0,0-12.3,10.732,1.632,1.632,0,0,0,.393,2.277,1.707,1.707,0,0,0,.95.295,1.668,1.668,0,0,0,1.344-.672A30.77,30.77,0,0,1,35.39,58.934a34.477,34.477,0,0,1,30.8-.033A30.762,30.762,0,0,1,77.3,68.535a1.648,1.648,0,0,0,2.294.377A1.628,1.628,0,0,0,79.972,66.635Z"
                        transform="translate(-21.277 -44.024)" fill="#1876d3" />
                    <path id="Path_198306" data-name="Path 198306"
                        d="M222.84,274.749a21.5,21.5,0,0,1-3.424.311,14.177,14.177,0,0,1-14.664-14.009,1.638,1.638,0,0,0-3.277,0,17.472,17.472,0,0,0,7.783,14.386,17.8,17.8,0,0,0,10.158,2.9,23.461,23.461,0,0,0,4-.361,1.639,1.639,0,1,0-.573-3.228Z"
                        transform="translate(-173.796 -219.566)" fill="#1876d3" />
                </g>
            </g>
        </g>
    </g>
</svg>
