<svg xmlns="http://www.w3.org/2000/svg" xmlns:xlink="http://www.w3.org/1999/xlink" width="219" height="220" viewBox="0 0 219 220">
  <defs>
    <radialGradient id="radial-gradient" cx="0.5" cy="0.5" r="0.5" gradientUnits="objectBoundingBox">
      <stop offset="0" stop-color="#edfaff"/>
      <stop offset="1" stop-color="#fff"/>
    </radialGradient>
  </defs>
  <g id="Group_74294" data-name="Group 74294" transform="translate(-71 -339)">
    <ellipse id="Ellipse_118" data-name="Ellipse 118" cx="37.5" cy="38" rx="37.5" ry="38" transform="translate(143 411)" fill="#999"/>
    <circle id="Ellipse_117" data-name="Ellipse 117" cx="65.5" cy="65.5" r="65.5" transform="translate(115 356)" fill="url(#radial-gradient)"/>
    <g id="Group_74300" data-name="Group 74300" transform="translate(150 390.9)">
      <path id="Path_105894" data-name="Path 105894" d="M81.305,68.8a1.2,1.2,0,0,0-1.185,1.185v4.956a5.54,5.54,0,0,1-5.548,5.548H69.185a1.185,1.185,0,0,0,0,2.37h5.387a7.931,7.931,0,0,0,7.918-7.918V69.985A1.2,1.2,0,0,0,81.305,68.8Z" transform="translate(-25.49 -25.759)" fill="#1876d3"/>
      <path id="Path_105895" data-name="Path 105895" d="M74.572,5.1H69.185a1.185,1.185,0,0,0,0,2.37h5.387a5.54,5.54,0,0,1,5.548,5.548v5.764a1.185,1.185,0,1,0,2.37,0V13.018A7.931,7.931,0,0,0,74.572,5.1Z" transform="translate(-25.49 0)" fill="#1876d3"/>
      <path id="Path_105896" data-name="Path 105896" d="M67.608,43.041a1.531,1.531,0,0,0,1.508-1.454V37.708A1.473,1.473,0,0,0,67.608,36.2,1.506,1.506,0,0,0,66.1,37.708v3.825A1.506,1.506,0,0,0,67.608,43.041Z" transform="translate(-25.597 -12.884)" fill="#1876d3"/>
      <path id="Path_105897" data-name="Path 105897" d="M49.318,67.989a10.168,10.168,0,0,1-7.164,3.017h-.431a10.074,10.074,0,0,1-7.164-3.017,1.181,1.181,0,0,0-1.67,1.67,12.4,12.4,0,0,0,8.834,3.717h.431a12.309,12.309,0,0,0,8.834-3.717,1.181,1.181,0,0,0-1.67-1.67Z" transform="translate(-10.908 -25.978)" fill="#1876d3"/>
      <path id="Path_105898" data-name="Path 105898" d="M43.485,50.482h.269a4.334,4.334,0,0,0,4.363-4.309V37.985a1.185,1.185,0,1,0-2.37,0v8.134a1.988,1.988,0,0,1-1.993,1.993h-.269a1.185,1.185,0,1,0,0,2.37Z" transform="translate(-15.522 -12.839)" fill="#1876d3"/>
      <path id="Path_105899" data-name="Path 105899" d="M28.408,36.2A1.506,1.506,0,0,0,26.9,37.708v3.825a1.506,1.506,0,0,0,1.508,1.508,1.461,1.461,0,0,0,1.508-1.454V37.708A1.506,1.506,0,0,0,28.408,36.2Z" transform="translate(-9.175 -12.884)" fill="#1876d3"/>
      <path id="Path_105900" data-name="Path 105900" d="M6.285,19.967A1.2,1.2,0,0,0,7.47,18.782V13.018A5.54,5.54,0,0,1,13.018,7.47h5.387a1.185,1.185,0,0,0,0-2.37H13.018A7.931,7.931,0,0,0,5.1,13.018v5.764A1.2,1.2,0,0,0,6.285,19.967Z" transform="translate(-0.046)" fill="#1876d3"/>
      <path id="Path_105901" data-name="Path 105901" d="M18.305,80.489H12.918A5.54,5.54,0,0,1,7.37,74.941V69.985a1.185,1.185,0,0,0-2.37,0v4.956a7.931,7.931,0,0,0,7.918,7.918h5.387a1.162,1.162,0,0,0,1.185-1.185A1.2,1.2,0,0,0,18.305,80.489Z" transform="translate(0 -25.759)" fill="#1876d3"/>
    </g>
  </g>
</svg>
