<svg xmlns="http://www.w3.org/2000/svg" width="102.006" height="57.5" viewBox="0 0 102.006 57.5">
  <g id="Group_149304" data-name="Group 149304" transform="translate(0 57.5) rotate(-90)">
    <path id="Rectangle_24179" data-name="Rectangle 24179" d="M48.506,0H51a0,0,0,0,1,0,0V33.513A14.993,14.993,0,0,1,36.007,48.506H0a0,0,0,0,1,0,0v0A48.506,48.506,0,0,1,48.506,0Z" transform="translate(6.5 53.5)" fill="#e8eeff"/>
    <circle id="Ellipse_2135" data-name="Ellipse 2135" cx="7" cy="7" r="7" transform="translate(25 16.5)" fill="#e9effd"/>
    <circle id="Ellipse_2136" data-name="Ellipse 2136" cx="11" cy="11" r="11" transform="translate(0 37)" fill="#e9effd"/>
    <circle id="Ellipse_2137" data-name="Ellipse 2137" cx="4" cy="4" r="4" transform="translate(34 40)" fill="#e9effd"/>
    <circle id="Ellipse_2138" data-name="Ellipse 2138" cx="3.5" cy="3.5" r="3.5" transform="translate(50.5 22)" fill="#e9effd"/>
    <circle id="Ellipse_2139" data-name="Ellipse 2139" cx="3" cy="3" r="3" transform="translate(37)" fill="#e9effd"/>
  </g>
</svg>
