<svg id="outline-shopping_cart-deselected" xmlns="http://www.w3.org/2000/svg" width="24" height="24" viewBox="0 0 24 24">
  <path id="Path_102933" data-name="Path 102933" d="M0,0H24V24H0Z" fill="none"/>
  <g id="Group_73429" data-name="Group 73429" transform="translate(3.176 2.7)">
    <path id="Path_102934" data-name="Path 102934" d="M955.089,540l.883-1.606h5.983a1.6,1.6,0,0,0,1.406-.827l.434-.787h-1.831l-.008.008h-5.638l-1.9-4.016h4.851v-1.606h-5.614l-.755-1.606H950.27v1.606h1.606l2.891,6.1-1.084,1.96a1.6,1.6,0,0,0,.627,2.184,1.654,1.654,0,0,0,.779.2h9.637V540Zm0,2.409a1.606,1.606,0,1,0,1.606,1.606A1.606,1.606,0,0,0,955.089,542.41Zm8.031,0a1.606,1.606,0,1,0,1.606,1.606A1.606,1.606,0,0,0,963.12,542.41Z" transform="translate(-950.27 -527.823)" fill="#1876d3"/>
    <path id="Path_106965" data-name="Path 106965" d="M967.818,534.048v-2.355h2.355V529.7h-2.355v-2.355h-1.991V529.7h-2.355v1.991h2.355v2.355Z" transform="translate(-952.523 -526.548)" fill="#1876d3"/>
  </g>
</svg>
