<svg xmlns="http://www.w3.org/2000/svg" width="114.838" height="48" viewBox="0 0 114.838 48">
    <g id="Group_147741" data-name="Group 147741" transform="translate(-4 -35.429)">
        <g id="Group_69962" data-name="Group 69962" transform="translate(4 35.429)">
            <g id="Group_67590" data-name="Group 67590" transform="translate(42.05 34.994)">
                <g id="Group_67585" data-name="Group 67585" transform="translate(0 2.952)">
                    <path id="Path_103005" data-name="Path 103005"
                        d="M55.224,68.584A2.929,2.929,0,0,1,54.7,70.4a1.662,1.662,0,0,1-1.4.688,1.723,1.723,0,0,1-1.446-.661l-.042.57h-.776V63.988h.845V66.6a1.714,1.714,0,0,1,1.411-.634,1.674,1.674,0,0,1,1.412.679,3.032,3.032,0,0,1,.514,1.862Zm-.844-.095a2.289,2.289,0,0,0-.334-1.334,1.107,1.107,0,0,0-.959-.469,1.241,1.241,0,0,0-1.2.776V69.6a1.275,1.275,0,0,0,1.21.775,1.1,1.1,0,0,0,.946-.469A2.424,2.424,0,0,0,54.38,68.489Z"
                        transform="translate(-51.042 -63.988)" fill="#505153" />
                    <path id="Path_103006" data-name="Path 103006"
                        d="M57.119,69.417l1.151-3.7h.9l-1.986,5.7q-.461,1.233-1.465,1.232l-.16-.013-.316-.059v-.685l.229.018a1.127,1.127,0,0,0,.668-.173,1.26,1.26,0,0,0,.4-.636l.186-.5-1.762-4.884h.922Z"
                        transform="translate(-50.257 -63.643)" fill="#505153" />
                </g>
                <g id="Group_67589" data-name="Group 67589" transform="translate(11.671)">
                    <g id="Group_67586" data-name="Group 67586">
                        <path id="Path_103007" data-name="Path 103007" d="M60.768,68.031c0-3.592,3.39-6.5,7.572-6.5s7.573,2.911,7.573,6.5-3.39,6.5-7.573,6.5-7.572-2.911-7.572-6.5"
                            transform="translate(-60.768 -61.528)" fill="#002c62" />
                        <path id="Path_103008" data-name="Path 103008" d="M66.314,63.365l1.758-.581.009,9.5-1.775.594Z" transform="translate(-59.66 -61.277)" fill="#e50019" />
                        <path id="Path_103009" data-name="Path 103009"
                            d="M68.144,69.023c-.764.919-1.5,1.86-2.887,1.86-1.955,0-2.882-1.888-2.882-3.466,0-1.517.725-3.311,2.629-3.311a2.987,2.987,0,0,1,2.1,1.038v1.288a4.257,4.257,0,0,0-1.862-.538c-1.207-.02-2.272.5-2.254,1.692a1.549,1.549,0,0,0,1.636,1.378c1.238,0,1.99-1.13,2.616-1.987.176-.226.67-.884.746-.99a3.527,3.527,0,0,1,2.888-1.859,2.949,2.949,0,0,1,2.8,2.663h-.734a1.748,1.748,0,0,0-1.427-.707c-1.28,0-2.047,1.177-2.687,2.044,0,0-.5.678-.679.9m5.57-.853c-.164,1.358-.928,2.73-2.594,2.734a2.794,2.794,0,0,1-2.26-1.477v-.942a4.733,4.733,0,0,0,2.021.688,2.249,2.249,0,0,0,2.1-1Z"
                            transform="translate(-60.447 -61.012)" fill="#fff" />
                    </g>
                    <g id="Group_67588" data-name="Group 67588" transform="translate(16.919 3.113)">
                        <g id="Group_67587" data-name="Group 67587">
                            <path id="Path_103010" data-name="Path 103010"
                                d="M81.767,69.548c-.806,0-1.136-.668-1.136-1.416s.33-1.427,1.136-1.427,1.138.67,1.138,1.427-.331,1.416-1.138,1.416m0,1.223a2.66,2.66,0,1,0-2.945-2.639,2.651,2.651,0,0,0,2.945,2.639"
                                transform="translate(-74.076 -63.85)" fill="#e50019" />
                            <path id="Path_103011" data-name="Path 103011"
                                d="M83.648,67.093h1V69.15c0,1.2.379,1.892,1.944,1.892a8.254,8.254,0,0,0,1.1-.1l-.059-1.135a3.238,3.238,0,0,1-.534.068c-.553,0-.7-.311-.7-.923V67.093h1.225V65.87H86.4V64.122l-1.721.613V65.87h-1.03Z"
                                transform="translate(-73.111 -64.122)" fill="#e50019" />
                            <path id="Path_103012" data-name="Path 103012"
                                d="M92.263,70.925h1.749v-2.5h.019l1.4,2.5H97.55l-1.905-2.736L97.4,65.87H95.49l-1.458,2.125h-.019V64.127l-1.749.605Z"
                                transform="translate(-71.388 -64.121)" fill="#e50019" />
                            <path id="Path_103013" data-name="Path 103013"
                                d="M74.867,70.925h1.75v-2.5h.019l1.4,2.5h2.119l-1.9-2.736,1.759-2.319H78.094l-1.457,2.125h-.019V64.127l-1.75.577Z"
                                transform="translate(-74.867 -64.121)" fill="#e50019" />
                            <path id="Path_103014" data-name="Path 103014"
                                d="M88.99,69.064c0-.492.473-.677,1.073-.677.265,0,.522.019.748.029a1.152,1.152,0,0,1-1.091,1.207c-.414,0-.73-.205-.73-.559m3.571,1.62a6.209,6.209,0,0,1-.1-1.207V67.572c0-1.561-1.132-2.122-2.44-2.122a5.3,5.3,0,0,0-2.046.364l.03,1.2a3.325,3.325,0,0,1,1.633-.384c.638,0,1.16.187,1.17.884a5.161,5.161,0,0,0-.827-.068c-.944,0-2.646.186-2.646,1.747,0,1.111.906,1.61,1.919,1.61a1.76,1.76,0,0,0,1.624-.923H90.9c0,.265.029.53.04.805Z"
                                transform="translate(-72.373 -63.856)" fill="#e50019" />
                        </g>
                    </g>
                </g>
            </g>
            <g id="Group_67591" data-name="Group 67591">
                <path id="Path_103015" data-name="Path 103015" d="M19.659,43.587A10.939,10.939,0,0,0,16,49.047L26.494,52.12Z" transform="translate(-16 -30.122)" fill="#e73757" />
                <path id="Path_103016" data-name="Path 103016" d="M37.285,51.464a10.988,10.988,0,0,0-17.846-7.248l7.04,8.606Z" transform="translate(-15.312 -30.489)"
                    fill="#e2001e" />
                <path id="Path_103017" data-name="Path 103017" d="M25.778,51.545l5.461,9.473a10.892,10.892,0,0,0,5.376-10.91Z" transform="translate(-14.044 -28.818)"
                    fill="#b5091d" />
                <path id="Path_103018" data-name="Path 103018" d="M24.04,62.341a11.056,11.056,0,0,0,1.514.106,10.945,10.945,0,0,0,5.6-1.532l-5.6-9.457Z"
                    transform="translate(-14.392 -28.548)" fill="#9e0e1b" />
                <path id="Path_103019" data-name="Path 103019" d="M18.3,58.685a10.916,10.916,0,0,0,6.628,3.624l1.6-11.028Z" transform="translate(-15.54 -28.583)" fill="#890d18" />
                <path id="Path_103020" data-name="Path 103020" d="M16.471,48.41a10.932,10.932,0,0,0,2.291,10.366l8.4-7.285Z" transform="translate(-15.997 -29.157)"
                    fill="#e2001e" />
                <path id="Path_103021" data-name="Path 103021"
                    d="M33.468,35.44a5.907,5.907,0,0,1-4.036-1.8l-.191-.211.247-.139a6.392,6.392,0,0,1,3.148-.926,4.808,4.808,0,0,1,3.78,1.867l.138.2-.2.126a5.38,5.38,0,0,1-2.882.884Z"
                    transform="translate(-13.352 -32.366)" fill="#54ab34" />
                <path id="Path_103022" data-name="Path 103022"
                    d="M31.03,34.847c4.356.456,4-1.751,4-1.751l.242.2a4.319,4.319,0,0,1,.784.8l.234.358a4.3,4.3,0,0,1-1.747.738A5.963,5.963,0,0,1,31.03,34.847Z"
                    transform="translate(-12.994 -32.22)" fill="#00973d" />
                <path id="Path_103023" data-name="Path 103023" d="M29.716,44.922c-.1.32-1,.318-2-.006s-1.733-.846-1.63-1.166,1-.318,2,0S29.821,44.6,29.716,44.922Z"
                    transform="translate(-13.985 -30.137)" fill="#1a1818" opacity="0.5" style="mix-blend-mode: multiply;isolation: isolate" />
                <path id="Path_103024" data-name="Path 103024"
                    d="M27.127,46.511l.071-.194A26.121,26.121,0,0,1,39.949,32.781l.128-.062L41.4,32.9l-.332.156c-.1.046-9.728,4.694-12.85,13.7l-.083.239Z"
                    transform="translate(-13.775 -32.295)" fill="#54ab34" />
            </g>
            <g id="Group_67592" data-name="Group 67592" transform="translate(26.484 2.472)">
                <path id="Path_103025" data-name="Path 103025"
                    d="M51.384,43.094l-.162,2.832A9.881,9.881,0,0,0,47.3,45.2q-5.666,0-5.665,7.891a8.871,8.871,0,0,0,1.517,5.5,4.861,4.861,0,0,0,4.068,1.982,9.152,9.152,0,0,0,4.168-1.092l.162,3.115a11.006,11.006,0,0,1-4.33.89,8.216,8.216,0,0,1-6.758-2.933,11.446,11.446,0,0,1-2.388-7.468q0-5.017,2.448-7.912A8.4,8.4,0,0,1,47.3,42.284a12.754,12.754,0,0,1,2.226.162A6.987,6.987,0,0,1,51.384,43.094Z"
                    transform="translate(-38.07 -32.854)" fill="#262626" />
                <path id="Path_103026" data-name="Path 103026"
                    d="M51.042,64.778V34.426h3.4V46.972a5.509,5.509,0,0,1,5.138-3.116q6.03,0,6.03,6.6V64.778h-3.4V51.464q0-4.694-3.4-4.694-4.37,0-4.37,5.585V64.778Z"
                    transform="translate(-35.476 -34.426)" fill="#262626" />
                <path id="Path_103027" data-name="Path 103027"
                    d="M80.141,53.9H68.486q0,7,5.624,7a8.152,8.152,0,0,0,4.735-1.7l.162,3.076a13.3,13.3,0,0,1-5.786,1.213,7.261,7.261,0,0,1-6.131-2.832q-2.167-2.833-2.166-7.771a12.885,12.885,0,0,1,2.084-7.75A6.866,6.866,0,0,1,72.9,42.284a6.236,6.236,0,0,1,5.363,2.59,12.071,12.071,0,0,1,1.882,7.2ZM68.486,51.308h8.256q0-6.433-4.046-6.434Q68.485,44.874,68.486,51.308Z"
                    transform="translate(-32.699 -32.854)" fill="#262626" />
                <path id="Path_103028" data-name="Path 103028"
                    d="M79.509,63.206V46.924l-.162-2.239V42.446h3.277l.122,3.48A5.986,5.986,0,0,1,88.7,42.284v3.359a6.637,6.637,0,0,0-1.295-.121,3.825,3.825,0,0,0-3.257,1.72,8.589,8.589,0,0,0-1.236,5.039V63.206Z"
                    transform="translate(-29.815 -32.854)" fill="#262626" />
                <path id="Path_103029" data-name="Path 103029"
                    d="M89.041,63.206V46.924l-.162-2.239V42.446h3.278l.121,3.48a5.985,5.985,0,0,1,5.948-3.642v3.359a6.637,6.637,0,0,0-1.295-.121,3.829,3.829,0,0,0-3.258,1.72,8.6,8.6,0,0,0-1.234,5.039V63.206Z"
                    transform="translate(-27.908 -32.854)" fill="#262626" />
                <path id="Path_103030" data-name="Path 103030"
                    d="M114.355,42.52l-7.163,24.847a8.328,8.328,0,0,1-1.882,3.643,4.341,4.341,0,0,1-3.176,1.133,9.531,9.531,0,0,1-2.308-.244l.162-3.076a4.626,4.626,0,0,0,1.861.4q1.537,0,2.266-2.588l.81-3.157L98.411,42.52h3.559l4.612,16.74,4.363-16.74Z"
                    transform="translate(-26.002 -32.807)" fill="#262626" />
            </g>
        </g>
    </g>
</svg>
