<svg xmlns="http://www.w3.org/2000/svg" width="63.842" height="64.253" viewBox="0 0 63.842 64.253">
  <g id="Group_75038" data-name="Group 75038" transform="translate(-253.273 -180)">
    <path id="Icon_awesome-pen" data-name="Icon awesome-pen" d="M20.443,6.556l9,9L9.9,35.1l-8.025.886A1.688,1.688,0,0,1,.01,34.125L.9,26.094,20.443,6.556Zm14.569-1.34L30.785.989a3.377,3.377,0,0,0-4.775,0L22.034,4.965l9,9,3.976-3.976a3.377,3.377,0,0,0,0-4.775Z" transform="translate(275.458 180)" fill="#ccc"/>
    <path id="Path_107208" data-name="Path 107208" d="M7397.4,4090.7s-10.25-1.223-14.706,2.655c-4.34,3.777-6.606,11.767-2.1,17.634s13.157,7.623,21.253,6.638,12.607-7.015,21.616-7.015,17.681,7.015,17.681,7.015" transform="translate(-7124.343 -3874.188)" fill="none" stroke="#ccc" stroke-width="1"/>
  </g>
</svg>
