<svg id="outline-live_help-24px" xmlns="http://www.w3.org/2000/svg" width="24" height="24" viewBox="0 0 24 24">
    <path id="Path_102849" data-name="Path 102849" d="M0,0H24V24H0Z" fill="none" />
    <path id="Path_102850" data-name="Path 102850"
        d="M18.238,2H4.9A1.9,1.9,0,0,0,3,3.9V17.238a1.9,1.9,0,0,0,1.9,1.9h3.81L11.571,22l2.857-2.857h3.81a1.91,1.91,0,0,0,1.9-1.9V3.9A1.91,1.91,0,0,0,18.238,2Zm0,15.238h-4.6l-.562.562-1.5,1.5L10.057,17.79,9.5,17.238H4.9V3.9H18.238Zm-7.619-2.857h1.9v1.9h-1.9Zm.952-7.619a1.91,1.91,0,0,1,1.9,1.9c0,1.9-2.857,1.667-2.857,4.762h1.9c0-2.143,2.857-2.381,2.857-4.762a3.81,3.81,0,1,0-7.619,0h1.9A1.91,1.91,0,0,1,11.571,6.762Z"
        transform="translate(0.428)" fill="#1876d3" />
</svg>
